Coordinates
version=1
nRows=19
nColumns=24
inDegrees=yes

Units are S.I. units (second, meters, Newtons, ...)
Angles are in degrees.

endheader
time	pelvis_tilt	pelvis_list	pelvis_rotation	pelvis_tx	pelvis_ty	pelvis_tz	hip_flexion_r	hip_adduction_r	hip_rotation_r	knee_angle_r	ankle_angle_r	subtalar_angle_r	mtp_angle_r	hip_flexion_l	hip_adduction_l	hip_rotation_l	knee_angle_l	ankle_angle_l	subtalar_angle_l	mtp_angle_l	lumbar_extension	lumbar_bending	lumbar_rotation
      6.20000000	      6.85677883	     -3.28217731	     -9.98548693	      0.83215843	      0.73095482	     -0.18210084	    -18.84607631	      6.91341249	     14.75544816	    -14.06623183	     23.51746374	     -9.60065582	      0.00000000	      7.75627977	     -4.09864576	      3.32011162	      4.40501764	     -6.77302750	    -24.36650965	      0.00000000	    -25.93831120	     -3.97867250	      6.11063133
      6.21000000	      7.09389993	     -2.68744786	    -10.08258079	      0.84310902	      0.73201673	     -0.18247512	    -18.23234376	      6.33167645	     13.48234158	    -17.00874632	     22.79865771	     -9.11941613	      0.00000000	      7.45433931	     -3.22982076	      3.59236638	      3.10841055	     -8.29731841	    -25.69317314	      0.00000000	    -25.95755220	     -4.81413094	      5.95370206
      6.22000000	      7.31921737	     -2.05178154	    -10.12067313	      0.85412462	      0.73351619	     -0.18291421	    -17.41399050	      5.73134880	     12.23369493	    -20.21026896	     21.45126886	     -9.08717931	      0.00000000	      7.20128656	     -2.29092168	      3.68102458	      1.70649591	     -8.96451783	    -26.17004783	      0.00000000	    -25.94169543	     -5.65983408	      5.77668505
      6.23000000	      7.57473461	     -1.42939159	    -10.04259039	      0.86523911	      0.73537109	     -0.18354474	    -16.39806183	      5.11601887	     10.71552642	    -23.70388951	     19.57852223	     -8.99920533	      0.00000000	      6.85867583	     -1.33874965	      3.84805488	      0.38488520	     -9.03014997	    -26.30980682	      0.00000000	    -25.95214193	     -6.41334285	      5.44935652
      6.24000000	      7.82050049	     -0.81761968	     -9.89889312	      0.87640910	      0.73742952	     -0.18434232	    -15.14127374	      4.43908121	      8.99559356	    -27.45426527	     17.27236622	     -8.79245235	      0.00000000	      6.52587345	     -0.38067628	      3.78816682	     -0.94094981	     -8.38071944	    -25.76182008	      0.00000000	    -25.93942326	     -7.08938532	      5.08872432
      6.25000000	      7.99388669	     -0.27434595	     -9.72124445	      0.88762645	      0.73950739	     -0.18524429	    -13.67564416	      3.81295408	      7.48349867	    -31.30533374	     14.21270558	     -9.07832613	      0.00000000	      6.22496780	      0.49066699	      3.46603747	     -2.20247009	     -7.07013789	    -24.63489738	      0.00000000	    -25.83245792	     -7.62495680	      4.71050501
      6.26000000	      8.13622869	      0.20184021	     -9.51000402	      0.89887822	      0.74148838	     -0.18630148	    -12.03911552	      3.17342798	      5.99226698	    -35.22011224	     10.70728837	     -9.41568268	      0.00000000	      5.80958044	      1.28211192	      3.28781927	     -3.22480860	     -5.71322773	    -23.74021642	      0.00000000	    -25.68186342	     -8.01878324	      4.30537457
      6.27000000	      8.19337055	      0.62685268	     -9.28797582	      0.91010827	      0.74319807	     -0.18751081	    -10.18114261	      2.49362504	      4.53799518	    -39.15185079	      6.99758723	     -9.64319823	      0.00000000	      5.30043871	      2.00934814	      3.46156400	     -3.93530364	     -4.66314657	    -23.57537087	      0.00000000	    -25.43424466	     -8.28659750	      3.88504117
      6.28000000	      8.25018410	      1.00491422	     -9.05595177	      0.92125895	      0.74471765	     -0.18879066	     -8.27265417	      1.79458924	      3.22320004	    -42.93157069	      3.08479788	    -10.17550479	      0.00000000	      4.69516927	      2.68224834	      3.48934463	     -4.46366602	     -3.55208860	    -23.23109782	      0.00000000	    -25.20379971	     -8.47120006	      3.43643520
      6.29000000	      8.40775924	      1.32596067	     -8.82756047	      0.93229635	      0.74615202	     -0.19006976	     -6.47522809	      1.09876322	      2.08512466	    -46.45358976	     -0.75251703	    -11.01235720	      0.00000000	      3.89067288	      3.29452336	      3.24210632	     -4.81472086	     -2.17157804	    -22.41804297	      0.00000000	    -25.12608195	     -8.58905687	      2.92558548
      6.30000000	      8.40535798	      1.65704975	     -8.64371644	      0.94312200	      0.74713593	     -0.19134699	     -4.41672424	      0.34500357	      1.04456595	    -49.84299040	     -3.94285415	    -11.85918612	      0.00000000	      3.17157927	      3.89391811	      3.30816010	     -4.99552564	     -1.33706171	    -22.41927018	      0.00000000	    -24.88911572	     -8.69438497	      2.47148805
      6.31000000	      8.47866053	      1.92145635	     -8.48294807	      0.95374462	      0.74804740	     -0.19250697	     -2.49026759	     -0.29662800	      0.27348403	    -52.87246123	     -6.62944074	    -13.34149536	      0.00000000	      2.31298456	      4.41975783	      3.36391976	     -5.07222812	     -0.48511174	    -22.37828920	      0.00000000	    -24.79185060	     -8.75124163	      2.02112513
      6.32000000	      8.57790360	      2.15482427	     -8.35074285	      0.96414889	      0.74885225	     -0.19352971	     -0.61881301	     -0.85497174	     -0.29785794	    -55.56764318	     -8.49901010	    -15.24499136	      0.00000000	      1.41967640	      4.90297450	      3.41948701	     -5.12699239	      0.34429824	    -22.35125563	      0.00000000	    -24.77104715	     -8.80263912	      1.59099684
      6.33000000	      8.70940914	      2.31789653	     -8.26163623	      0.97434982	      0.74961263	     -0.19434909	      1.16087031	     -1.23051828	     -0.61007731	    -57.87765221	     -9.53764484	    -17.62692339	      0.00000000	      0.50304222	      5.30051938	      3.47415205	     -5.21010289	      1.25343726	    -22.31829407	      0.00000000	    -24.82918352	     -8.82229082	      1.24531185
      6.34000000	      8.87715107	      2.42054975	     -8.17344408	      0.98438942	      0.75038994	     -0.19501071	      2.83634988	     -1.44984070	     -0.76876353	    -59.77879541	     -9.85053710	    -20.22854519	      0.00000000	     -0.43685989	      5.62377648	      3.53673661	     -5.32593640	      2.15593407	    -22.19431939	      0.00000000	    -24.96490750	     -8.80556125	      0.95990540
      6.35000000	      9.07486858	      2.44907553	     -8.09007330	      0.99430272	      0.75118972	     -0.19549183	      4.40124275	     -1.47289193	     -0.74943535	    -61.25381324	     -9.49955917	    -22.83225870	      0.00000000	     -1.38165001	      5.85742674	      3.58772128	     -5.50195021	      3.10441870	    -22.03274845	      0.00000000	    -25.16312791	     -8.74211853	      0.70186178
      6.36000000	      9.28590652	      2.42910732	     -7.97040564	      1.00413548	      0.75199416	     -0.19586813	      5.86980580	     -1.36285510	     -0.64916262	    -62.29819968	     -8.57081200	    -25.12775530	      0.00000000	     -2.32444989	      6.03099045	      3.73302047	     -5.71820544	      3.98046614	    -21.90267915	      0.00000000	    -25.39350996	     -8.63845469	      0.44287730
      6.37000000	      9.53366487	      2.25863742	     -7.84584792	      1.01392251	      0.75287121	     -0.19609139	      7.17339375	     -0.99718005	     -0.42975385	    -62.86268889	     -7.30634509	    -26.98815532	      0.00000000	     -3.32280469	      6.03529227	      3.90060550	     -5.94961273	      4.97788449	    -21.73625667	      0.00000000	    -25.67716475	     -8.39909704	      0.30963225
      6.38000000	      9.76220634	      2.01959051	     -7.73108257	      1.02367757	      0.75370398	     -0.19620815	      8.39999598	     -0.49177047	     -0.11326607	    -62.99931988	     -5.70339164	    -28.15197331	      0.00000000	     -4.33307047	      5.95717482	      4.11965446	     -6.13818280	      5.88121375	    -21.75237732	      0.00000000	    -25.92842978	     -8.09870006	      0.26224079
